<?xml version="1.0" encoding="UTF-8" standalone="no"?>
<!-- Created with Inkscape (http://www.inkscape.org/) -->

<svg
   xmlns:dc="http://purl.org/dc/elements/1.1/"
   xmlns:cc="http://creativecommons.org/ns#"
   xmlns:rdf="http://www.w3.org/1999/02/22-rdf-syntax-ns#"
   xmlns:svg="http://www.w3.org/2000/svg"
   xmlns="http://www.w3.org/2000/svg"
   xmlns:sodipodi="http://sodipodi.sourceforge.net/DTD/sodipodi-0.dtd"
   xmlns:inkscape="http://www.inkscape.org/namespaces/inkscape"
   width="480"
   height="360"
   viewBox="0 0 127 95.250003"
   version="1.1"
   id="svg386"
   inkscape:version="0.92.2 5c3e80d, 2017-08-06"
   sodipodi:docname="logo.svg">
  <defs
     id="defs380">
    <filter
       inkscape:collect="always"
       style="color-interpolation-filters:sRGB"
       id="filter5227"
       x="-0.0053157116"
       width="1.0106314"
       y="-0.011153717"
       height="1.0223074">
      <feGaussianBlur
         inkscape:collect="always"
         stdDeviation="0.23608246"
         id="feGaussianBlur5229" />
    </filter>
  </defs>
  <sodipodi:namedview
     id="base"
     pagecolor="#ffffff"
     bordercolor="#666666"
     borderopacity="1.0"
     inkscape:pageopacity="0.0"
     inkscape:pageshadow="2"
     inkscape:zoom="1.4"
     inkscape:cx="231.15012"
     inkscape:cy="183.39569"
     inkscape:document-units="mm"
     inkscape:current-layer="layer1"
     showgrid="false"
     units="px"
     inkscape:window-width="1440"
     inkscape:window-height="818"
     inkscape:window-x="22"
     inkscape:window-y="0"
     inkscape:window-maximized="0" />
  <metadata
     id="metadata383">
    <rdf:RDF>
      <cc:Work
         rdf:about="">
        <dc:format>image/svg+xml</dc:format>
        <dc:type
           rdf:resource="http://purl.org/dc/dcmitype/StillImage" />
        <dc:title></dc:title>
      </cc:Work>
    </rdf:RDF>
  </metadata>
  <g
     inkscape:label="Layer 1"
     inkscape:groupmode="layer"
     id="layer1"
     transform="translate(0,-201.74998)">
    <path
       style="fill:#d3bc5f;stroke-width:0.26458332"
       d="m 100.35267,261.09225 c 0,7.43614 -6.595933,14.65728 -18.08465,17.26529 -3.02452,0.68659 -8.850599,0.87757 -12.058948,0.87757 -2.722551,0 -4.935224,0.74514 -10.024915,-1.58523 -4.255642,-1.94849 -8.210361,-10.27693 -11.627749,-10.47782 -7.902521,-0.46456 -16.124754,-4.64305 -18.696292,-9.85957 -1.292365,-2.62164 -3.965968,-0.89405 -0.981347,-4.2852 1.381941,-1.57016 3.52546,0.54558 6.163938,2.47502 3.170752,2.31868 6.888423,4.70407 8.622375,4.57171 4.048292,-0.30902 4.968913,-2.84802 6.186257,-3.94168 6.514888,-5.853 10.876485,-6.37937 22.058626,-6.37937 15.395341,0 28.442705,1.94551 28.442705,11.33928 z"
       id="path390"
       inkscape:connector-curvature="0"
       sodipodi:nodetypes="ssssssssssss" />
    <path
       style="fill:#c8ab37;fill-opacity:1;stroke:#000000;stroke-width:3.57142854;stroke-miterlimit:4;stroke-dasharray:none;stroke-opacity:1"
       d=""
       id="path4899"
       inkscape:connector-curvature="0"
       transform="matrix(0.26458333,0,0,0.26458333,0,201.74998)" />
    <path
       style="fill:#c8ab37;fill-opacity:1;stroke:#000000;stroke-width:3.57142854;stroke-miterlimit:4;stroke-dasharray:none;stroke-opacity:1"
       d=""
       id="path4901"
       inkscape:connector-curvature="0"
       transform="matrix(0.26458333,0,0,0.26458333,0,201.74998)" />
    <path
       style="fill:#c8ab37;fill-opacity:1;stroke:#000000;stroke-width:3.57142854;stroke-miterlimit:4;stroke-dasharray:none;stroke-opacity:1"
       d=""
       id="path4903"
       inkscape:connector-curvature="0"
       transform="matrix(0.26458333,0,0,0.26458333,0,201.74998)" />
    <path
       style="fill:#c8ab37;fill-opacity:1;stroke:#c08d00;stroke-width:3.57100004;stroke-miterlimit:4;stroke-dasharray:none;stroke-opacity:1"
       d=""
       id="path4905"
       inkscape:connector-curvature="0"
       transform="matrix(0.26458333,0,0,0.26458333,0,201.74998)" />
    <path
       style="fill:#d4aa00;fill-opacity:1;stroke:#cb8900;stroke-width:2.55071425;stroke-miterlimit:4;stroke-dasharray:none;stroke-opacity:1"
       d=""
       id="path4907"
       inkscape:connector-curvature="0"
       transform="matrix(0.26458333,0,0,0.26458333,0,201.74998)" />
    <path
       style="opacity:1;fill:none;fill-opacity:1;stroke:#d3bc5f;stroke-width:0.94482708;stroke-miterlimit:4;stroke-dasharray:none;stroke-opacity:1"
       d="m 112.63689,263.64357 c -1.60188,4.38536 -5.84016,9.21472 -9.36344,10.66277 0,0 3.98533,1.97113 3.31426,2.39245 -2.02228,1.26965 -7.155885,0.8354 -9.164355,0.8354 -5.68845,0 -1.98437,-5.23458 -1.98437,-13.32366 0,-8.08908 4.611395,-12.37871 10.299845,-12.37871 5.68845,0 9.67347,4.2137 6.89806,11.81175 z"
       id="path4918"
       inkscape:connector-curvature="0"
       sodipodi:nodetypes="sssssss" />
    <path
       style="opacity:1;fill:none;fill-opacity:1;stroke:#d3bc5f;stroke-width:0.67487645;stroke-miterlimit:4;stroke-dasharray:none;stroke-opacity:1"
       d="m 97.795037,276.9655 c -1.729632,-0.11613 -1.892255,-0.16204 -2.315104,-0.65363 -0.599864,-0.69738 -0.596281,-1.71825 0.01918,-5.46513 0.260683,-1.58705 0.553789,-4.35024 0.651346,-6.14043 0.273537,-5.01946 0.977783,-7.18081 3.067735,-9.41498 2.074476,-2.21762 5.066796,-3.25213 8.064586,-2.78812 4.6637,0.72187 6.69783,4.11107 5.52182,9.20028 -1.10534,4.78335 -5.48843,10.30747 -9.60572,12.10632 -0.44176,0.193 -0.80219,0.40178 -0.80096,0.46395 0.001,0.0622 0.72664,0.49008 1.61203,0.9509 2.13148,1.1094 2.23069,1.24967 1.06121,1.50048 -1.25883,0.26997 -4.99613,0.39343 -7.276115,0.24036 z"
       id="path4931"
       inkscape:connector-curvature="0" />
    <ellipse
       style="opacity:1;fill:#d3bc5f;fill-opacity:1;stroke:#d3bc5f;stroke-width:0.94482708;stroke-miterlimit:4;stroke-dasharray:none;stroke-opacity:1"
       id="path4933"
       cx="104.97434"
       cy="275.25128"
       rx="2.7918465"
       ry="2.6533675" />
    <path
       style="opacity:1;fill:#d3bc5f;fill-opacity:1;stroke:#d3bc5f;stroke-width:1.14349473;stroke-miterlimit:4;stroke-dasharray:none;stroke-opacity:1"
       d="m 86.835188,283.03257 c 5e-6,3.50369 -6.047649,3.85171 -13.50781,3.85171 -7.46016,0 -13.507813,-0.34802 -13.507808,-3.85171 -5e-6,-3.50368 6.047648,-6.34398 13.507808,-6.34398 7.460161,0 13.507815,2.8403 13.50781,6.34398 z"
       id="path4935"
       inkscape:connector-curvature="0"
       sodipodi:nodetypes="cscsc" />
    <path
       style="opacity:1;fill:#d3bc5f;fill-opacity:1;stroke:#d3bc5f;stroke-width:0.94482708;stroke-miterlimit:4;stroke-dasharray:none;stroke-opacity:1"
       d="m 88.446433,248.80802 c 7e-6,1.77438 -7.713964,0.94494 -16.063987,0.94494 -8.350023,0 -15.119053,0.82944 -15.119047,-0.94494 2e-5,-1.77438 6.769042,-5.48065 15.119047,-5.48065 8.350005,0 16.063968,3.70627 16.063987,5.48065 z"
       id="path4938"
       inkscape:connector-curvature="0"
       sodipodi:nodetypes="cscsc" />
    <ellipse
       style="opacity:1;fill:#d3bc5f;fill-opacity:1;stroke:#d3bc5f;stroke-width:0.94482708;stroke-miterlimit:4;stroke-dasharray:none;stroke-opacity:1"
       id="path4941"
       cx="72.571426"
       cy="240.30354"
       rx="3.4017856"
       ry="3.2127976" />
    <path
       style="fill:#ffffff;stroke:#000000;stroke-width:0.26484792;stroke-linecap:butt;stroke-linejoin:miter;stroke-opacity:1;stroke-miterlimit:4;stroke-dasharray:none;filter:url(#filter5227)"
       d="m 25.324405,254.03063 c -0.629961,0 -1.259921,0 -1.889881,0 -0.063,0 -0.125993,0 -0.188989,0 -0.063,0 -0.132642,0.0283 -0.188988,0 -0.07968,-0.0399 -0.109303,-0.14949 -0.188988,-0.18943 -0.07493,-0.0376 -0.528328,0.0387 -0.566964,0 -0.063,-0.1263 -0.125992,-0.25258 -0.188988,-0.37887 -0.063,0.0631 -0.109304,0.22937 -0.188988,0.18943 -0.125992,-0.0631 -0.063,-0.31572 -0.188988,-0.37887 -0.07968,-0.0399 -0.109304,0.1495 -0.188988,0.18944 -0.05635,0.0283 -0.160816,0.0565 -0.188988,0 -0.05635,-0.11296 0.08909,-0.28958 0,-0.37888 -0.063,-0.0632 -0.109304,0.14951 -0.188989,0.18944 -0.05635,0.0283 -0.160815,0.0565 -0.188988,0 -0.05635,-0.11296 0.112691,-0.32239 0,-0.37887 -0.125992,-0.0632 -0.251984,0.25258 -0.377976,0.18943 -0.112691,-0.0564 0,-0.25257 0,-0.37886 0,-0.0632 0.05635,0.21767 0,0.18943 -0.159369,-0.0799 -0.251984,-0.25258 -0.377976,-0.37887 -0.063,-0.0632 0.188988,0.10014 0.188988,0.18944 0,0.0632 -0.160815,0.0564 -0.188988,0 -0.535466,-1.07348 0.267733,-0.18944 0,-0.18944 -0.063,0 0.04454,-0.14479 0,-0.18944 -0.04454,-0.0446 -0.160816,0.0564 -0.188988,0 -0.535466,-1.07346 0.267733,-0.18943 0,-0.18943 -0.063,0 0.05635,-0.16119 0,-0.18944 -0.112691,-0.0564 -0.251984,0 -0.377976,0 -0.063,0 0.160815,0.0565 0.188988,0 0.05635,-0.11296 0,-0.25258 0,-0.37887 0,-0.0632 0.063,0.18944 0,0.18944 -0.063,0 0,-0.1263 0,-0.18944 0,-0.12628 0,-0.25258 0,-0.37887 0,-0.0632 0,0.25259 0,0.18944 0,-0.12629 0,-0.25258 0,-0.37887 0,-0.0632 0.063,0.18943 0,0.18943 -0.063,0 -0.05635,-0.16119 0,-0.18943 0.112691,-0.0564 0.25845,0.0399 0.377976,0 0.08452,-0.0283 0.149146,-0.10957 0.188988,-0.18944 0.02817,-0.0565 -0.063,-0.18943 0,-0.18943 0.08909,0 0.109304,0.1495 0.188988,0.18943 0.05635,0.0283 0.144443,0.0446 0.188988,0 0.04454,-0.0447 0.04454,-0.14479 0,-0.18943 -0.04454,-0.0446 -0.125992,0 -0.188988,0 -0.063,0 -0.125992,0 -0.188988,0 -0.503968,0 -1.007937,0 -1.511905,0 -0.08511,0 -0.509448,0.0289 -0.566964,0 -0.07968,-0.0399 -0.0999,-0.18944 -0.188988,-0.18944 -0.08909,0 -0.0999,0.18944 -0.188988,0.18944 -0.393262,0 -0.07604,-0.26566 -0.188988,-0.37888 -0.08909,-0.0893 -0.288887,0.0893 -0.377976,0 -0.09961,-0.0998 -0.063,-0.31572 -0.188989,-0.37886 -0.07968,-0.04 -0.125991,0.25257 -0.188988,0.18942 -0.08909,-0.0893 0.03984,-0.25906 0,-0.37886 -0.165133,-0.49657 -0.259626,0.11863 -0.566964,-0.18944 -0.08909,-0.0893 0.05635,-0.26592 0,-0.37887 -0.07968,-0.15975 -0.321631,-0.20944 -0.377976,-0.37887 -0.02817,-0.0847 0.0999,-0.18943 0.188988,-0.18943 0.063,0 0.04454,0.23408 0,0.18943 -0.09961,-0.0998 -0.08938,-0.27903 -0.188988,-0.37887 -0.04454,-0.0446 0,0.25258 0,0.18944 0,-1.13105 0,-1.1312 0,-1.70492 0,-0.18944 0,-0.37888 0,-0.56831 0,-0.0632 0.063,0.18943 0,0.18943 -0.063,0 0,-0.12628 0,-0.18943 0,-0.0632 -0.063,-0.18944 0,-0.18944 0.08909,0 0.109304,0.22937 0.188988,0.18944 0.125992,-0.0632 0.188988,-0.23767 0.188988,-0.37887 0,-0.0893 -0.188988,0.10014 -0.188988,0.18943 0,0.1412 0.377976,-0.0482 0.377976,-0.18943 0,-0.0631 -0.125992,0 -0.188988,0 -0.063,0 -0.125992,0 -0.188988,0 -0.251984,0 -0.503968,0 -0.755952,0 -0.27132,0 -0.720401,0.0562 -0.944941,0 -0.08643,-0.0216 -0.0999,-0.18944 -0.188988,-0.18944 -0.08909,0 -0.109304,0.22938 -0.188988,0.18944 -0.125992,-0.0631 -0.063,-0.31572 -0.188988,-0.37887 -0.07968,-0.0399 -0.125992,0.25257 -0.188988,0.18943 -0.08909,-0.0893 0.06989,-0.27379 0,-0.37887 -0.07814,-0.11748 -0.237113,-0.18944 -0.377976,-0.18944 -0.08909,0 0.251984,0.25259 0.188988,0.18944 -0.125992,-0.12629 -0.298292,-0.21913 -0.377977,-0.37887 -0.02817,-0.0564 0.160816,0.0565 0.188989,0 0.05635,-0.11296 0,-0.25258 0,-0.37887 0,-0.25259 0,-0.50516 0,-0.75774 0,-0.12629 0,-0.25259 0,-0.37887 0,-0.0631 -0.063,-0.18944 0,-0.18944 0.140863,0 0.27837,0.28928 0.377976,0.18944 0.0996,-0.0998 -0.188988,-0.23767 -0.188988,-0.37887 0,-0.55431 0.265031,0.037 0.377976,-0.18944 0.05635,-0.11296 -0.08909,-0.28957 0,-0.37887 0.063,-0.0631 0.125992,0.12629 0.188988,0.18944 -0.063,-0.1263 -0.188988,-0.23767 -0.188988,-0.37888 0,-0.39419 0.265031,-0.0762 0.377976,-0.18944 0.799552,-0.80144 -0.07236,-0.26196 0,-0.18942 0.08909,0.0893 0.288886,0.0893 0.377976,0 0.063,-0.0632 -0.188988,-0.10014 -0.188988,-0.18944 0,-0.0632 0.125992,0 0.188988,0 0.063,0 0.125992,0 0.188988,0 0.063,0 0.188988,-0.0632 0.188988,0 0,0.0632 -0.251984,0 -0.188988,0 0.125992,0 0.251984,0 0.377977,0 0.063,0 -0.188989,0.0632 -0.188989,0 0,-0.0632 0.125993,0 0.188989,0 0.063,0 0.188988,-0.0632 0.188988,0 0,0.0893 -0.10447,0.16119 -0.188988,0.18944 -0.01557,0.005 -0.8738,0.0238 -0.944941,0 -0.913967,-0.30538 -0.188988,-0.0415 -0.188988,-0.37888 0,-0.12629 -0.288886,0.0893 -0.377976,0 -0.09961,-0.0998 -0.063,-0.31572 -0.188988,-0.37887 -0.07969,-0.0399 -0.125992,0.25258 -0.188988,0.18944 -0.08909,-0.0893 0.05635,-0.26591 0,-0.37888 -0.05635,-0.11296 -0.321631,0.11297 -0.377977,0 -0.05634,-0.11296 0.03984,-0.25905 0,-0.37886 -0.233533,-0.70226 -0.188988,0.0523 -0.188988,0 0,-0.74002 0.112691,-0.0765 -0.377976,-0.56832 -0.04455,-0.0446 0.144443,0.0447 0.188988,0 0.04454,-0.0446 0.05635,-0.16119 0,-0.18942 -0.112691,-0.0565 -0.321631,0.11295 -0.377976,0 -0.063,-0.12629 0.144443,-0.24493 0.188988,-0.37888 0.03718,-0.11179 0,-0.84134 0,-0.94718 0,-0.0631 0,0.25258 0,0.18944 0,-0.37887 0,-0.75774 0,-1.13661 0,-0.0631 0,0.25257 0,0.18944 0,-0.18944 0,-0.37888 0,-0.56832 0,-0.12629 -0.03984,-0.25906 0,-0.37886 0.143869,-0.43263 0.377976,0.11709 0.377976,-0.56831 0,-0.0632 -0.188988,0.0631 -0.188988,0 0,-0.0632 0.144443,0.0446 0.188988,0 0.09961,-0.0998 0.144444,-0.24492 0.188988,-0.37887 0.02703,-0.0813 -0.08643,-0.65495 0.188989,-0.37887 0.165132,0.16552 -0.815783,0.43884 -0.188989,-0.18944 0.143869,-0.14421 0.377977,0.95471 0.377977,-0.18943 0,-0.0893 -0.125993,0.25258 -0.188988,0.18943 -0.08909,-0.0893 0,-0.25258 0,-0.37887 0,-0.0631 0.06299,0.18944 0,0.18944 -0.063,0 -0.04455,-0.14479 0,-0.18944 0.04454,-0.0447 0.144443,0.0446 0.188988,0 0.271367,-0.27201 -0.348902,-0.17486 -0.377977,-0.18943 -0.07968,-0.0399 -0.0999,-0.18944 -0.188988,-0.18944 -0.063,0 0.063,0.18944 0,0.18944 -0.140863,0 -0.27837,-0.0896 -0.377976,-0.18944 -0.04455,-0.0446 -0.063,-0.18944 0,-0.18944 0.063,0 0.063,0.18944 0,0.18944 -0.140863,0 -0.31498,-0.0631 -0.377976,-0.18944 -0.03984,-0.0799 0.278078,-0.18944 0.188988,-0.18944 -0.140863,0 -0.237113,0.18944 -0.377976,0.18944 -0.08909,0 0.149146,-0.10956 0.188988,-0.18944 0.02817,-0.0564 0.04454,-0.14478 0,-0.18942 -0.112945,-0.11322 -0.377976,0.20475 -0.377976,-0.18944 0,-0.0632 0.144443,0.0446 0.188988,0 0.02779,-0.0279 -0.02223,-0.56831 0,-0.56831 0.063,0 0,0.25258 0,0.18944 0,-0.12629 0,-0.25258 0,-0.37888 0,-0.11879 -0.02334,-0.73433 0,-0.75774 0.125992,-0.0632 0.251984,-0.12629 0.377976,-0.18944 -0.063,-0.0631 -0.22883,-0.10956 -0.188988,-0.18942 0.063,-0.12629 0.31498,-0.0632 0.377976,-0.18944 0.03984,-0.0799 -0.22883,-0.10956 -0.188988,-0.18944 0.063,-0.12629 0.31498,-0.0632 0.377976,-0.18944 0.03984,-0.0799 -0.22883,-0.10955 -0.188988,-0.18942 0.063,-0.1263 0.244341,-0.1448 0.377976,-0.18944 0.05976,-0.0199 0.188988,0.0632 0.188988,0 0,-0.0893 -0.251984,-0.1263 -0.188988,-0.18944 0.08909,-0.0893 0.321631,0.11296 0.377977,0 0.06299,-0.12629 -0.288594,-0.27903 -0.188989,-0.37887 0.09961,-0.0998 0.278371,0.28928 0.377977,0.18943 0.09961,-0.0998 -0.288594,-0.27902 -0.188988,-0.37887 0.09961,-0.0998 0.237112,0.18944 0.377976,0.18944 0.08909,0 -0.188988,-0.10014 -0.188988,-0.18944 0,-0.0631 0.125992,0 0.188988,0 0.063,0 0.188988,-0.0631 0.188988,0 0,0.0632 -0.144443,0.0447 -0.188988,0 -0.04455,-0.0446 0.02817,-0.13295 0,-0.18943 -0.09858,-0.19762 -0.45708,-0.29959 -0.377976,-0.37887 0.06299,-0.0632 0.125992,0.25257 0.188988,0.18944 0.08909,-0.0893 0.08909,-0.28958 0,-0.37888 -0.143869,-0.14421 -0.377977,0.95471 -0.377977,-0.18944 0,-0.0893 0.149146,-0.10956 0.188989,-0.18943 0.02118,-0.0424 0,-0.71273 0,-0.75774 0,-0.37887 0,-0.75774 0,-1.13662 0,-0.12629 -0.08909,-0.28956 0,-0.37886 0.08909,-0.0893 0.288886,0.0893 0.377976,0 0.063,-0.0631 -0.228831,-0.10957 -0.188988,-0.18944 0.063,-0.12629 0.27837,-0.0896 0.377976,-0.18944 0.0996,-0.0998 0.08938,-0.27903 0.188988,-0.37886 0.04455,-0.0447 0.188988,-0.0632 0.188988,0 0,0.0632 -0.217161,0.0564 -0.188988,0 0.07968,-0.15975 0.251984,-0.25259 0.377976,-0.37888 0.125992,-0.12629 0.251984,-0.25257 0.377976,-0.37887 0.063,-0.0631 -0.278078,0.18944 -0.188988,0.18944 0.140864,0 0.260771,-0.11112 0.377976,-0.18944 0.07413,-0.0495 0.0999,-0.18943 0.188988,-0.18943 0.08909,0 0.188989,0.10014 0.188989,0.18943 0,0.0632 -0.251985,0 -0.188989,0 0.125993,0 0.251985,0 0.377977,0 0.063,0 -0.188988,0.0632 -0.188988,0 0,-0.0631 0.125991,0 0.188988,0 0.063,0 0.188988,-0.0631 0.188988,0 0,0.0893 -0.251985,0.1263 -0.188988,0.18944 0.442464,0.44351 0.484462,-0.40292 0.188988,0.18943 -0.188988,0.37888 0.125992,0.0632 0.188988,0.18944 0.05635,0.11296 -0.08909,0.28956 0,0.37886 0.063,0.0632 0.188988,-0.10013 0.188988,-0.18942 0,-0.0632 -0.160816,-0.0565 -0.188988,0 -0.05635,0.11295 0,0.25257 0,0.37886 0,0.0632 0,-0.12629 0,-0.18944 0,-0.18942 0,-0.37886 0,-0.5683 0,-0.53673 0.063,0.25258 -0.377976,-0.18943 -0.063,-0.0632 0.251984,-0.12629 0.188988,-0.18944 -0.08909,-0.0893 -0.321631,0.11295 -0.377976,0 -0.063,-0.12629 0.188988,-0.23767 0.188988,-0.37887 0,-0.1786 -0.377977,-0.20027 -0.377977,-0.37887 0,-0.30807 0.354121,-0.0478 0.188989,-0.37888 -0.03984,-0.0799 -0.149146,-0.10956 -0.188989,-0.18942 -0.02873,-0.0576 0,-0.62694 0,-0.75775 0,-0.50516 0,-1.01032 0,-1.51548 0,-0.25258 0,-0.50517 0,-0.75774 0,-0.12629 0,-0.25259 0,-0.37888 0,-0.0632 -0.02817,-0.13295 0,-0.18943 0.03984,-0.0799 0.160816,-0.10472 0.188989,-0.18944 2.91e-4,-8.4e-4 -1.81e-4,-0.56812 0,-0.5683 0.0014,-0.001 0.566964,-0.23381 0.566964,-0.37888 0,-0.0893 -0.217161,-0.10472 -0.188988,-0.18943 0.0034,-0.0103 0.923203,-0.93265 0.94494,-0.94717 0.05242,-0.0351 0.132643,0.0283 0.188988,0 0.07969,-0.04 0.109304,-0.14951 0.188988,-0.18944 0.05635,-0.0283 0.144443,0.0446 0.188988,0 0.04454,-0.0447 -0.04454,-0.14479 0,-0.18944 0.08909,-0.0893 0.265286,0.0565 0.377977,0 0.07968,-0.0399 0.10447,-0.1612 0.188988,-0.18943 0.119526,-0.0399 0.251984,0 0.377976,0 0.063,0 0.188988,-0.0632 0.188988,0 0,0.0631 -0.251984,0 -0.188988,0 0.125992,0 0.251984,0 0.377976,0 0.063,0 -0.188988,0.0631 -0.188988,0 0,-0.12629 0.288886,0.0893 0.377976,0 0.04454,-0.0446 0,-0.12629 0,-0.18944 0,-0.0631 0.02817,-0.13296 0,-0.18943 -0.03984,-0.0799 -0.160815,-0.10472 -0.188988,-0.18944 -0.03984,-0.11981 0.06989,-0.27379 0,-0.37887 -0.07814,-0.11748 -0.333431,-0.0555 -0.377976,-0.18944 -0.04454,-0.13395 0.188988,-0.23767 0.188988,-0.37886 0,-0.0631 -0.169067,0.0599 -0.188988,0 -0.0445,-0.13382 0,-1.09976 0,-1.32606 0,-0.0749 -0.04036,-0.86627 0,-0.94717 0.03984,-0.0799 0.125992,-0.12629 0.188988,-0.18944 0.063,-0.0632 0.109304,-0.14949 0.188988,-0.18944 0.05635,-0.0283 0.144443,0.0446 0.188988,0 0.04454,-0.0446 -0.04455,-0.14478 0,-0.18942 0.0013,-0.001 0.566965,-0.23382 0.566965,-0.37888 0,-0.0632 -0.251985,0 -0.188989,0 0.125993,0 0.288887,0.0893 0.377977,0 0.063,-0.0632 -0.251984,-0.12629 -0.188988,-0.18944 0.08909,-0.0893 0.288886,0.0893 0.377976,0 0.063,-0.0632 -0.188988,-0.10013 -0.188988,-0.18943 0,-0.0631 0.132642,0.0283 0.188988,0 0.626794,-0.31414 0,-0.13283 0,-0.18943 0,-0.0632 0.125992,0 0.188988,0 0.063,0 0.188988,-0.0632 0.188988,0 0,0.0632 -0.188988,0.0632 -0.188988,0 0,-0.0632 0.160815,-0.0565 0.188988,0 0.05635,0.11296 0,0.25258 0,0.37886 0,0.0631 -0.04454,0.14479 0,0.18944 0.04455,0.0446 0.188988,-0.0632 0.188988,0 0,0.0893 -0.149146,0.10956 -0.188988,0.18944 -0.02817,0.0564 0.063,0.18944 0,0.18944 -0.063,0 0,-0.1263 0,-0.18944 0,-0.18944 0,-0.37888 0,-0.56831 0,-0.62267 -0.05634,0.49183 0.377976,-0.37887 0.03984,-0.0799 -0.251984,-0.1263 -0.188988,-0.18944 0.08909,-0.0893 0.288886,0.0893 0.377976,0 0.063,-0.0632 -0.217161,-0.10471 -0.188988,-0.18943 0.05635,-0.16944 0.251984,-0.25258 0.377976,-0.37888 0.125992,-0.12629 0.229722,-0.2798 0.377976,-0.37886 0.117206,-0.0783 0.29984,-0.072 0.377977,-0.18944 0.06989,-0.10508 -0.03984,-0.25906 0,-0.37888 0.08874,-0.26686 0.643604,-0.30378 0.755952,-0.37886 0.05242,-0.0351 -0.05242,-0.15441 0,-0.18944 0.133788,-0.5776 0.523634,-0.073 0.755952,-0.18943 0.07969,-0.0399 0.102559,-0.16778 0.188988,-0.18944 0.183346,-0.0459 0.377977,0 0.566965,0 0.440972,0 0.881944,0 1.322916,0 0.125993,0 0.251984,0 0.377977,0 0.063,0 0.144443,-0.0446 0.188988,0 0.09961,0.0998 0.08938,0.27903 0.188988,0.37887 0.09961,0.0998 0.31498,0.0632 0.377976,0.18944 0.03984,0.0799 -0.22883,0.10956 -0.188988,0.18944 0.063,0.12629 0.27837,0.0896 0.377976,0.18942 0.04454,0.0447 -0.144443,-0.0446 -0.188988,0 -0.04455,0.0447 0.063,0.18944 0,0.18944 -0.295474,0 -0.164387,-0.49433 -0.188988,-0.5683 -0.02817,-0.0847 -0.188988,-0.10014 -0.188988,-0.18944 0,-0.0632 0.160815,0.0565 0.188988,0 0.04016,-0.0805 0,-0.78843 0,-0.94717 0,-0.0696 -0.0076,-0.75013 0,-0.75774 0.04454,-0.0447 0.144443,0.0446 0.188988,0 0.04454,-0.0447 0,-0.1263 0,-0.18944 0.125992,0 0.265286,0.0564 0.377977,0 0.05634,-0.0283 -0.04454,-0.14478 0,-0.18944 0.04454,-0.0446 0.132641,0.0283 0.188987,0 0.07968,-0.0399 0.109304,-0.1495 0.188989,-0.18944 0.112689,-0.0564 0.258448,0.0399 0.377976,0 0.133633,-0.0446 0.24434,-0.14478 0.377976,-0.18943 0.122449,-0.0409 0.790215,0 0.94494,0 0.566966,0 1.133928,0 1.700893,0 0.314981,0 0.62996,0 0.944941,0 0.125992,0 0.255746,-0.0306 0.377976,0 0.136657,0.0343 0.251983,0.1263 0.377975,0.18943 0.125992,0.0632 0.260771,0.11112 0.377976,0.18944 0.07413,0.0495 0.109305,0.1495 0.188989,0.18944 0.05635,0.0283 0.132644,-0.0283 0.188987,0 0.07968,0.0399 0.114861,0.1399 0.188989,0.18944 0.117205,0.0783 0.278371,0.0896 0.377976,0.18943 0.04454,0.0446 -0.251984,0 -0.188987,0 0.125992,0 0.251984,0 0.377976,0 0.063,0 -0.144444,-0.0446 -0.188989,0 -0.04455,0.0446 0.063,0.18943 0,0.18943 -0.063,0 0,-0.12629 0,-0.18943 0,-0.0632 -0.02817,-0.13296 0,-0.18943 0.03984,-0.0799 0.109305,-0.14951 0.188989,-0.18944 0.05635,-0.0283 0.188987,0.0632 0.188987,0 0,-0.0893 -0.188987,-0.10014 -0.188987,-0.18944 0,-0.0632 0.160814,0.0565 0.188987,0 0.251984,-0.50516 -0.377976,-0.37887 0.377976,-0.37887 0.063,0 -0.251984,0 -0.188987,0 0.738272,0 0.0763,0.11296 0.566965,-0.37887 0.04454,-0.0446 0.132641,0.0283 0.188987,0 0.07968,-0.0399 0.109304,-0.1495 0.188989,-0.18944 0.05635,-0.0283 0.144441,0.0447 0.188987,0 0.09961,-0.0998 0.08938,-0.27902 0.188989,-0.37887 0.0172,-0.0172 0.920932,0.016 0.944941,0 0.10483,-0.0701 -0.112692,-0.32239 0,-0.37886 0.125992,-0.0632 0.24434,0.14478 0.377975,0.18943 0.05976,0.0199 0.125992,0 0.188987,0 0.629962,0 1.259922,0 1.889882,0 0.251984,0 0.5169,-0.0799 0.755951,0 0.169037,0.0564 0.21861,0.299 0.377979,0.37887 0.598813,0.30012 0.175871,-0.39202 0.755951,0.18943 0.0996,0.0998 0.05233,0.34463 0.188987,0.37888 0.193265,0.0484 0.377978,-0.25259 0.566965,-0.18944 0.119528,0.0399 -0.03984,0.25906 0,0.37887 0.12536,0.37697 0.17639,0.0884 0.377976,0.18943 0.10501,0.0526 0.317039,0.37888 0.377976,0.37888 0.063,0 0,-0.12629 0,-0.18944 0,-0.37887 0,-0.75774 0,-1.13661 0,-0.0631 0,-0.12629 0,-0.18944 0,-0.0632 -0.05634,-0.16119 0,-0.18943 0.112691,-0.0565 0.288888,0.0893 0.377978,0 0.063,-0.0632 -0.251986,-0.1263 -0.188989,-0.18943 0.08909,-0.0893 0.251984,0 0.377976,0 0,-0.12629 -0.05635,-0.26592 0,-0.37888 0.02817,-0.0564 0.125992,0 0.188989,0 0.188986,0 0.377976,0 0.566962,0 0.566965,0 1.13393,0 1.700895,0 0.188987,0 0.377976,0 0.566963,0 0.063,0 0.136572,-0.035 0.188989,0 0.449109,0.30012 0.286901,0.56831 0.944941,0.56831 0.140861,0 0.241318,-0.22369 0.377976,-0.18943 1.511903,0.37886 -0.283483,0.28415 0.566965,0.5683 0.119525,0.0399 0.258447,-0.0399 0.377975,0 0.08452,0.0283 0.109302,0.1495 0.188987,0.18943 0.05635,0.0283 0.132644,-0.0283 0.188989,0 0.07968,0.0399 0.0999,0.18944 0.188987,0.18944 0.08909,0 0.109304,-0.22937 0.188989,-0.18944 0.125992,0.0632 0.063,0.31573 0.188989,0.37888 0.07968,0.0399 0.0999,-0.18944 0.188987,-0.18944 0.063,0 -0.05635,0.16119 0,0.18944 0.112691,0.0564 0.251984,0 0.377976,0 0.063,0 -0.188987,0.0632 -0.188987,0 0,-0.0631 0.125992,0 0.188987,0 0.063,0 0.144444,0.0446 0.188989,0 0.09961,-0.0998 0.08938,-0.27903 0.188986,-0.37888 0.04455,-0.0446 0.132644,0.0283 0.18899,0 0.07968,-0.0399 0.125992,-0.12628 0.188989,-0.18943 0.125992,0 0.258448,0.0399 0.377976,0 0.08452,-0.0283 0.102558,-0.16778 0.188986,-0.18944 0.183346,-0.0459 0.38362,0.0459 0.566965,0 0.08643,-0.0216 0.101629,-0.17192 0.18899,-0.18943 0.247089,-0.0495 0.513662,0.0694 0.755951,0 0.218395,-0.0626 0.344239,-0.33423 0.566965,-0.37887 0.138126,-0.0277 0.237112,0.18944 0.377976,0.18944 0.19921,0 0.369755,-0.16121 0.566962,-0.18944 0.249452,-0.0357 0.503971,0 0.755955,0 0.251984,0 0.503967,0 0.755951,0 0.18899,0 0.381646,0.0372 0.566965,0 0.138129,-0.0277 0.239848,-0.16174 0.377976,-0.18944 0.185317,-0.0372 0.377976,0 0.566965,0 0.188987,0 0.377976,0 0.566963,0 0.440973,0 0.881946,0 1.322916,0 0.125992,0 0.288888,-0.0893 0.377976,0 0.08909,0.0893 -0.05634,0.26592 0,0.37888 0.02817,0.0564 0.125992,0 0.188989,0 0,0.12628 0,0.25257 0,0.37886 0,0.0632 0,-0.25258 0,-0.18943 0,0.12629 0,0.25258 0,0.37887 0,0.0632 0.063,0.18943 0,0.18943 -0.063,0 0,-0.12628 0,-0.18943 0,-0.18944 0,-0.37887 0,-0.5683 0,-0.25259 -0.09359,-0.52323 0,-0.75774 0.06617,-0.16584 0.279141,-0.23028 0.377976,-0.37888 0.03494,-0.0525 -0.02817,-0.13295 0,-0.18944 0.03984,-0.0799 0.149146,-0.10956 0.188989,-0.18943 0.08909,-0.17861 0.04812,-0.42711 0.188987,-0.56831 0.08909,-0.0893 0.255746,0.0307 0.377976,0 0.273317,-0.0685 0.482639,-0.31038 0.755954,-0.37887 0.122229,-0.0307 0.251984,0 0.377976,0 0.251984,0 0.507396,0.0415 0.755951,0 0.138946,-0.0233 0.239848,-0.16174 0.377976,-0.18944 0.18532,-0.0372 0.377976,0 0.566965,0 0.566965,0 1.133928,0 1.700893,0 0.377975,0 0.755951,0 1.13393,0 0.125992,0 0.258447,-0.0399 0.377976,0 0.08452,0.0283 0.125991,0.1263 0.188986,0.18944 0.125992,0.12629 0.251984,0.25259 0.377976,0.37887 0.433319,0.43435 -0.119526,-0.0799 0.566965,0.37888 0.148254,0.099 0.229722,0.2798 0.377976,0.37886 0.117205,0.0783 0.247189,0.137 0.377976,0.18944 0.184964,0.0742 0.4261,0.0482 0.566965,0.18944 0.08909,0.0893 -0.05635,0.26591 0,0.37886 0.02817,0.0564 0.144444,-0.0446 0.188989,0 0.112945,0.11322 -0.204274,0.37888 0.188986,0.37888 0.08909,0 0.0999,-0.18944 0.18899,-0.18944 0.06299,0 -0.04455,0.14478 0,0.18944 0.04454,0.0446 0.125992,0 0.188986,0 0.063,0 0.132644,0.0283 0.188989,0 0.786525,-0.39419 -0.202035,0.013 0.18899,-0.37888 0.04454,-0.0446 0.125992,0 0.188986,0 0.063,-0.12629 0.08938,-0.27903 0.188989,-0.37886 0.04455,-0.0447 -0.04454,0.14478 0,0.18944 0.04455,0.0446 0.125992,0 0.188987,0 0.063,0 0.132644,0.0283 0.188989,0 0.105008,-0.0526 0.317037,-0.37888 0.377976,-0.37888 0.140864,0 0.244343,0.14478 0.377976,0.18944 0.05976,0.0199 0.125992,0 0.188989,0 0.125992,0 0.251984,0 0.377976,0 0.314981,0 0.62996,0 0.944941,0 0.503968,0 1.007935,0 1.511903,0 0.188989,0 0.397928,-0.0847 0.566965,0 0.159369,0.0799 0.205116,0.33555 0.377976,0.37886 0.136657,0.0343 0.241318,-0.22368 0.377976,-0.18942 0.17286,0.0433 0.235434,0.2717 0.377975,0.37886 1.007939,0.75774 -0.188986,-0.44201 0.566966,0.56831 0.533823,0.71345 0.411117,0.0443 0.94494,0.75774 0.169037,0.22592 0.178766,0.55806 0.377976,0.75774 0.04454,0.0447 0.160817,-0.0564 0.188989,0 0.05635,0.11296 -0.03984,0.25906 0,0.37888 0.02817,0.0847 0.149146,0.10956 0.188987,0.18943 0.02817,0.0564 0.063,0.18943 0,0.18943 -0.063,0 -0.04454,-0.23408 0,-0.18943 0.0996,0.0998 0.08938,0.27903 0.188989,0.37887 0.04454,0.0446 -0.063,-0.18944 0,-0.18944 0.063,0 -0.04454,0.14479 0,0.18944 0.04454,0.0446 0.144444,0.0446 0.188987,0 0.04454,-0.0446 0,-0.12629 0,-0.18944 0,-0.12629 -0.05634,-0.26591 0,-0.37886 0.02817,-0.0565 0.144444,0.0446 0.188989,0 0.04454,-0.0447 -0.02817,-0.13297 0,-0.18944 0.03984,-0.0799 0.125992,-0.12629 0.188989,-0.18944 0.063,-0.0632 0.109302,-0.1495 0.188987,-0.18944 0.05634,-0.0283 0.160816,0.0564 0.188989,0 0.05635,-0.11295 -0.112691,-0.32239 0,-0.37886 0.266541,-0.13359 0.300421,0.32302 0.566962,0.18943 0.07968,-0.0399 0.109305,-0.1495 0.18899,-0.18943 0.05634,-0.0283 0.125992,0 0.188989,0 0.125992,0 0.251984,0 0.377976,0 0.503967,0 1.007935,0 1.511903,0 0.440973,0 0.881946,0 1.322917,0 0.188989,0 0.381648,-0.0372 0.566965,0 0.138128,0.0277 0.247187,0.13699 0.377975,0.18943 0.184963,0.0742 0.371624,0.15027 0.566965,0.18943 0.123545,0.0248 0.260996,-0.0469 0.377976,0 0.188989,0.12629 0.377976,0.25259 0.566965,0.37888 0,0.0632 -0.05242,0.1544 0,0.18944 0.221414,0.14796 0.72762,0.16103 0.944941,0.37886 0.04454,0.0446 -0.04454,0.14479 0,0.18944 0.09961,0.0998 0.260771,0.11111 0.377976,0.18944 0.09176,0.0613 0.341519,0.37887 0.377976,0.37887 0.08909,0 0.125992,-0.25259 0.188986,-0.18944 0.08909,0.0893 -0.03984,0.25907 0,0.37887 0.02817,0.0847 0.251987,0.1263 0.18899,0.18944 -0.063,0.0631 -0.18899,-0.10014 -0.18899,-0.18944 0,-0.0632 0.144444,-0.0446 0.18899,0 0.04454,0.0446 -0.04455,0.14479 0,0.18944 0.04454,0.0446 0.188989,-0.0631 0.188989,0 0,0.0631 -0.188989,0.0631 -0.188989,0 0,-0.0893 0.125991,-0.12629 0.188989,-0.18944 0.125992,-0.12629 0.251984,-0.25258 0.377976,-0.37887 0.06299,-0.0631 0.0999,-0.18943 0.188986,-0.18943 0.063,0 -0.06299,0.18943 0,0.18943 0.140864,0 0.241319,-0.15519 0.377976,-0.18943 0.122232,-0.0307 0.260996,0.0469 0.377978,0 0.210889,-0.0846 0.344239,-0.33422 0.566963,-0.37888 0.138128,-0.0277 0.237114,0.18944 0.377976,0.18944 0.140864,0 0.244342,-0.14478 0.377978,-0.18944 0.05976,-0.0199 0.125992,0 0.188987,0 0.188989,0 0.377975,0 0.566965,0 0.629959,0 1.259919,0 1.889881,0 0.427924,0 0.54087,-0.13395 0.755952,0.18944 0.07814,0.11749 0.188987,0.23767 0.188987,0.37887 0,0.0632 -0.251984,0 -0.188987,0 0.125992,0 0.288885,-0.0893 0.377976,0 0.08909,0.0893 0,0.25258 0,0.37887 0,0.0632 -0.063,0.18944 0,0.18944 0.08909,0 0.188989,-0.27874 0.188989,-0.18944 0,0.1412 -0.08938,0.27903 -0.188989,0.37887 -0.04454,0.0446 0,-0.25257 0,-0.18943 0,0.12628 0,0.25258 0,0.37887 0,0.0632 -0.063,-0.18944 0,-0.18944 0.063,0 0.05634,0.1612 0,0.18944 -0.112692,0.0564 -0.251984,0 -0.377976,0 -0.063,0 0.251984,0 0.188987,0 -0.125992,0 -0.251984,0 -0.377976,0 -0.063,0 0.144444,0.0446 0.188989,0 0.04454,-0.0447 0,-0.12629 0,-0.18944 0,-0.12629 0,-0.25257 0,-0.37887 0,-0.12629 0,-0.25258 0,-0.37887 0,-0.12628 -0.06989,-0.27379 0,-0.37887 0.07814,-0.11748 0.260771,-0.11111 0.377976,-0.18944 0.07413,-0.0495 0.0999,-0.18943 0.188989,-0.18943 0.063,0 0,0.12629 0,0.18943 0,-0.12629 -0.112691,-0.32239 0,-0.37886 0.125992,-0.0631 0.237112,0.18943 0.377976,0.18943 0.683781,0 0.135358,-0.23466 0.566962,-0.37887 0.119528,-0.0399 0.255746,0.0307 0.377979,0 0.136657,-0.0343 0.237111,-0.18944 0.377975,-0.18944 0.08909,0 0.0999,0.18944 0.188987,0.18944 0.199213,0 0.371623,-0.15028 0.566965,-0.18944 0.123545,-0.0248 0.251984,0 0.377976,0 0.377976,0 0.755952,0 1.13393,0 0.212759,0 1.375042,-0.0457 1.511902,0 0.29877,0.0998 0.58015,0.30398 0.75595,0.56831 0.0349,0.0525 -0.0563,0.16119 0,0.18943 0.11269,0.0564 0.25845,-0.0399 0.37798,0 0.14387,0.0481 0.37798,0.49095 0.37798,0.56831 0,0.0893 -0.22883,0.10956 -0.18899,0.18944 0.063,0.12629 0.31498,0.0631 0.37797,0.18943 0.0399,0.0799 -0.18898,0.10013 -0.18898,0.18944 0,0.0893 0.14914,0.10956 0.18898,0.18943 0.0756,0.15155 -0.0756,0.41676 0,0.5683 0.27808,0.55748 0.18899,-0.29405 0.18899,0.56832 0,0.0632 0,-0.25259 0,-0.18944 0,0.12629 0,0.25258 0,0.37887 0,0.0631 0,-0.25258 0,-0.18943 0,0.12629 0,0.25257 0,0.37886 0,0.0632 0.0445,-0.14478 0,-0.18943 -0.31498,-0.31572 -0.18899,0.69459 -0.18899,-0.37887 0,-0.0632 -0.0445,0.23408 0,0.18944 0.063,-0.12629 0.126,-0.25259 0.18899,-0.37888 0.063,0.0632 0.10931,0.22937 0.18899,0.18944 0.12599,-0.0632 0.0554,-0.33422 0.18899,-0.37888 0.13363,-0.0446 0.23711,0.18944 0.37797,0.18944 0.14087,0 0.24132,-0.15518 0.37798,-0.18944 0.12223,-0.0306 0.25198,0 0.37798,0 0.25198,0 0.50397,0 0.75595,0 0.37798,0 0.75595,0 1.13393,0 0.18899,0 0.38055,-0.0312 0.56696,0 0.1965,0.0329 0.38386,0.11079 0.56697,0.18944 0.25895,0.11125 0.52154,0.22223 0.75595,0.37888 0.14825,0.099 0.20665,0.3298 0.37798,0.37886 0.30286,0.0867 0.65542,-0.12436 0.94494,0 0.20877,0.0897 0.16708,0.48375 0.37797,0.56831 0.18496,0.0742 0.37542,-0.24429 0.56697,-0.18943 0.30286,0.0867 0.49387,0.39318 0.75595,0.56831 0.4954,0.33104 0.33026,0.0708 0.94494,0.37886 0.0797,0.0399 0.11486,0.1399 0.18899,0.18944 0.1172,0.0783 0.26077,0.11111 0.37797,0.18944 0.0741,0.0495 0.10931,0.14949 0.18899,0.18944 0.17818,0.0893 0.40121,0.0787 0.56697,0.18942 0.0524,0.035 -0.0349,0.13691 0,0.18944 0.13773,0.20709 0.56696,0.43387 0.56696,0.75774 0,0.0893 -0.22883,-0.26931 -0.18899,-0.18943 0.10158,0.20363 0.2417,0.38616 0.37798,0.5683 0.0534,0.0715 0.18899,0.10014 0.18899,0.18944 0,0.0893 -0.18899,0.10014 -0.18899,0.18944 0,0.0893 0.14914,0.10956 0.18899,0.18943 0.0282,0.0565 0,0.1263 0,0.18943 0,0.12629 0,0.25259 0,0.37888 0,0.0632 0.063,0.18944 0,0.18944 -0.063,0 -0.063,-0.18944 0,-0.18944 0.063,0 0,0.25258 0,0.18944 0,-0.1263 0,-0.25259 0,-0.37888 0,-0.12629 -0.0891,-0.28957 0,-0.37887 0.063,-0.0632 0.18898,0.27874 0.18898,0.18943 0,-0.14119 -0.0894,-0.27902 -0.18898,-0.37886 -0.0446,-0.0447 -0.063,0.18943 0,0.18943 0.0891,0 0.1093,-0.1495 0.18898,-0.18943 0.0563,-0.0283 0.18899,-0.0632 0.18899,0 0,0.0631 -0.25198,0 -0.18899,0 0.126,0 0.25199,0 0.37798,0 0.063,0 -0.25198,0 -0.18899,0 0.12599,0 0.25199,0 0.37798,0 0.063,0 -0.18899,0.0631 -0.18899,0 0,-0.0632 0.14444,-0.0447 0.18899,0 0.0445,0.0446 -0.0446,0.14478 0,0.18943 0.0445,0.0447 0.12599,0 0.18899,0 -0.063,0.1263 -0.25199,0.25258 -0.18899,0.37887 0.0563,0.11296 0.28888,-0.0893 0.37797,0 0.063,0.0632 -0.22883,0.10956 -0.18898,0.18944 0.063,0.12629 0.26528,0.10472 0.37797,0.18944 1.61522,1.21427 -0.43389,-0.32732 0.37798,0.75774 0.13628,0.18214 0.42155,0.20397 0.56696,0.37887 0.89269,0.15781 0.17299,0.79416 0.37798,1.1366 0.13751,0.22974 0.41871,0.34541 0.56696,0.56832 0.11051,0.16614 0.11501,0.3829 0.18899,0.5683 0.16219,0.40644 0.30833,0.45852 0.37798,0.94718 0.0356,0.25004 -0.0494,0.51006 0,0.75775 0.0175,0.0876 0.18899,0.10013 0.18899,0.18942 0,0.14121 -0.14445,0.24492 -0.18899,0.37888 -0.096,0.28866 0.28798,0.39691 0,0.75774 -0.176,0.22051 -0.51438,0.23358 -0.75595,0.37887 -0.0764,0.0459 -0.10931,0.1495 -0.18899,0.18944 -0.0563,0.0283 -0.126,0 -0.18899,0 -0.25198,0.0631 -0.53323,0.0555 -0.75595,0.18943 -0.12079,0.0727 -0.0554,0.33423 -0.18899,0.37887 -0.13364,0.0447 -0.23985,-0.16174 -0.37798,-0.18944 -0.18532,-0.0372 -0.38362,-0.0459 -0.56696,0 -0.0864,0.0217 -0.10931,0.14951 -0.18899,0.18944 -0.0563,0.0283 -0.12599,0 -0.18899,0 -0.18899,0 -0.37797,0 -0.56696,0 -0.063,0 -0.12599,0 -0.18899,0 -0.063,0 -0.14444,0.0447 -0.18899,0 -0.0445,-0.0446 0.0446,-0.14478 0,-0.18944 -0.0445,-0.0446 -0.14444,0.0446 -0.18899,0 -0.0445,-0.0446 -0.0445,-0.14478 0,-0.18943 0.0446,-0.0446 0.126,0 0.18899,0 0.31498,0 0.62996,0 0.94494,0 0.063,0 -0.23353,-0.0446 -0.18899,0 0.0996,0.0998 0.33344,0.0555 0.37798,0.18943 0.0445,0.13396 -0.23353,0.24492 -0.18899,0.37888 10e-4,0.004 0.56697,0.23209 0.56697,0.37886 0,0.14121 -0.18899,0.23768 -0.18899,0.37888 0,0.0632 0.13264,-0.0283 0.18899,0 0.0797,0.0399 0.18898,0.10013 0.18898,0.18944 0,0.0893 -0.18898,0.10013 -0.18898,0.18943 0,0.0893 0.16081,0.10472 0.18898,0.18944 0.0348,0.10476 0,0.94583 0,1.1366 0,0.0632 0.0349,0.13691 0,0.18944 -0.23113,0.34753 -0.69019,0.60673 -0.94494,0.94718 -0.13628,0.18214 -0.19626,0.43171 -0.37797,0.56831 -0.1008,0.0758 -0.25845,-0.04 -0.37798,0 -0.0845,0.0283 -0.11259,0.14349 -0.18899,0.18943 -0.36237,0.21794 -0.75595,0.37887 -1.13392,0.56831 -0.126,0.0632 -0.26078,0.11111 -0.37798,0.18944 -0.26208,0.17513 -0.45309,0.48157 -0.75595,0.5683 -0.19155,0.0548 -0.37163,-0.22859 -0.56697,-0.18944 -0.17472,0.035 -0.20894,0.32239 -0.37797,0.37888 -0.0845,0.0283 -0.0999,-0.18944 -0.18899,-0.18944 -0.25974,0 -0.49883,0.15262 -0.75595,0.18944 -0.31182,0.0446 -0.62996,0 -0.94494,0 -0.0836,0 -1.46542,0.0233 -1.51191,0 -0.12599,-0.0632 -0.0894,-0.27903 -0.18899,-0.37888 -0.0445,-0.0446 0.0563,0.21768 0,0.18944 -0.12599,-0.12629 -0.25198,-0.25258 -0.37797,-0.37887 0.063,0 0.18898,0.0631 0.18898,0 0,-0.0893 -0.0999,-0.18943 -0.18898,-0.18943 -0.063,0 0.063,0.18943 0,0.18943 -0.063,0 -0.0446,-0.14479 0,-0.18943 0.0445,-0.0447 0.14444,-0.0447 0.18898,0 0.0446,0.0446 -0.0282,0.13295 0,0.18943 0.0399,0.0799 0.14915,0.10956 0.18899,0.18943 10e-4,0.003 0.0184,0.91944 0,0.94718 -0.0988,0.14861 -0.23543,0.27171 -0.37797,0.37887 -0.22539,0.16943 -0.53057,0.20944 -0.75596,0.37888 -0.37652,0.28306 -0.29849,0.45367 -0.75595,0.5683 -0.12223,0.0307 -0.27718,-0.0758 -0.37797,0 -0.18171,0.1366 -0.17483,0.46649 -0.37798,0.5683 -0.12599,0.0632 -0.23711,-0.18942 -0.37798,-0.18942 -0.28172,0 -0.47969,0.32348 -0.75595,0.37886 -0.37063,0.0743 -0.77535,-0.1198 -1.13393,0 -0.0598,0.0199 0.0598,0.16947 0,0.18944 -0.17929,0.0599 -0.37797,0 -0.56696,0 -0.37798,0 -0.75595,0 -1.13393,0 -0.12599,0 -0.288886,0.0893 -0.377976,0 0.426966,-0.42798 0.05635,0.0565 -0.377976,-0.37888 -0.063,-0.0631 0.251984,-0.12628 0.188987,-0.18942 -0.147614,-0.14797 -0.514774,0.10462 -0.566965,0 -0.05634,-0.11296 0.05635,-0.26592 0,-0.37888 -0.02817,-0.0564 -0.188987,0.0632 -0.188987,0 0,-0.0893 0.188987,-0.10014 0.188987,-0.18944 0,-0.0893 -0.149146,-0.10955 -0.188987,-0.18942 -0.02817,-0.0564 0.04454,-0.1448 0,-0.18944 -0.04454,-0.0447 -0.188989,0.0632 -0.188989,0 0,-0.0632 0.188989,-0.0632 0.188989,0 0,0.0632 -0.132644,-0.0283 -0.188989,0 -0.433319,0.21717 0,0.22357 0,0.5683 0,0.0893 -0.0999,0.18944 -0.188987,0.18944 -0.08909,0 -0.109305,-0.22937 -0.188989,-0.18944 -0.125992,0.0632 -0.11085,0.26139 -0.188987,0.37888 -0.09884,0.1486 -0.251984,0.25257 -0.377978,0.37886 -0.08511,0.0853 -0.48069,0.53949 -0.566963,0.56831 -0.119528,0.0399 -0.265287,-0.0565 -0.377975,0 -0.159369,0.0799 -0.279141,0.23027 -0.377979,0.37887 -0.03494,0.0525 0.05976,0.16947 0,0.18944 -0.179289,0.0599 -0.387673,-0.06 -0.566962,0 -0.215479,0.072 -0.344242,0.33421 -0.566965,0.37887 -0.138129,0.0277 -0.237112,-0.18944 -0.377976,-0.18944 -0.063,0 0.06112,0.17412 0,0.18944 -0.305575,0.0766 -0.62996,0 -0.944941,0 -0.566965,0 -1.133927,0 -1.700892,0 -0.377976,0 -0.755952,0 -1.13393,0 -0.125992,0 -0.265285,0.0564 -0.377976,0 -0.159369,-0.0799 -0.218607,-0.29901 -0.377976,-0.37887 -0.112691,-0.0564 -0.265284,0.0565 -0.377976,0 -0.05634,-0.0283 0.05242,-0.15441 0,-0.18944 -0.165753,-0.11076 -0.401211,-0.0787 -0.566965,-0.18944 -0.05241,-0.035 0.04454,-0.14478 0,-0.18943 -0.04454,-0.0447 -0.132641,0.0283 -0.188986,0 -0.15937,-0.0799 -0.229722,-0.2798 -0.377976,-0.37887 -0.117208,-0.0783 -0.278371,-0.0896 -0.377979,-0.18944 -0.04454,-0.0446 0.18899,0.0631 0.18899,0 0,-0.074 -0.354121,-0.21334 -0.18899,-0.37886 0.04455,-0.0447 0.125995,0 0.18899,0 0.125991,0 0.251983,0 0.377975,0 0.063,0 -0.188986,-0.0632 -0.188986,0 0,0.0893 0.149145,0.10955 0.188986,0.18942 0.0049,0.01 0.0049,0.5584 0,0.56832 -0.16683,0.33445 -0.702619,0.28171 -0.94494,0.37886 -0.617191,0.24746 0.410254,0.21562 -0.566963,0.37888 -0.248557,0.0415 -0.506502,-0.0357 -0.755954,0 -0.197207,0.0283 -0.377976,0.12628 -0.566963,0.18943 -0.251983,0.0632 -0.498221,0.15714 -0.755954,0.18944 -0.250036,0.0313 -0.51149,-0.0612 -0.755951,0 -0.06112,0.0153 0.06236,0.18051 0,0.18944 -0.364004,0.0521 -1.712855,0 -2.267858,0 -0.548844,0 -1.200407,0.11156 -1.700892,-0.18944 -0.152789,-0.0919 -0.229722,-0.2798 -0.377976,-0.37887 -0.05242,-0.035 -0.132644,0.0283 -0.188989,0 -0.07968,-0.0399 -0.109302,-0.14951 -0.188987,-0.18944 -0.178181,-0.0893 -0.388784,-0.10014 -0.566965,-0.18944 -0.167508,-0.084 -0.394925,-0.45334 -0.566965,-0.5683 -0.117205,-0.0783 -0.260771,-0.11111 -0.377976,-0.18944 -0.07413,-0.0495 -0.125992,-0.12629 -0.188986,-0.18944 -0.063,-0.0631 -0.18899,-0.10013 -0.18899,-0.18942 0,-0.0893 0.18899,-0.10014 0.18899,-0.18944 0,-0.99844 -0.377979,0.61956 -0.377979,-0.37888 0,-0.23328 0.954733,0.57813 0,-0.37886 -0.04454,-0.0447 0,0.12629 0,0.18944 0,0.0632 0,0.12628 0,0.18942 0,0.0459 0.0061,0.56222 0,0.56832 -0.04454,0.0446 -0.188986,-0.0632 -0.188986,0 0,0.0893 0.251983,0.12628 0.188986,0.18942 -0.08909,0.0893 -0.265284,-0.0564 -0.377976,0 -0.05635,0.0283 0.04455,0.1448 0,0.18944 -0.04454,0.0446 -0.132641,-0.0283 -0.188986,0 -0.07968,0.0399 -0.109305,0.1495 -0.188989,0.18944 -0.05635,0.0283 -0.125992,0 -0.188987,0 -0.125992,0 -0.255746,-0.0307 -0.377979,0 -0.136657,0.0343 -0.239847,0.16174 -0.377975,0.18944 -0.185317,0.0372 -0.377976,0 -0.566963,0 -0.188989,0 -0.377978,0 -0.566965,0 -1.13393,0 -2.267857,0 -3.401785,0 -0.07062,0 -1.268724,0.0181 -1.322916,0 -0.320548,-0.10711 -0.532085,-0.34392 -0.755955,-0.56832 -0.06299,-0.0631 -0.11486,-0.13989 -0.188986,-0.18942 -0.117205,-0.0783 -0.260771,-0.11113 -0.377976,-0.18944 -0.07413,-0.0495 -0.125992,-0.12629 -0.188989,-0.18944 -0.063,-0.0632 -0.188989,-0.10014 -0.188989,-0.18944 0,-0.0893 0.188989,-0.10013 0.188989,-0.18942 0,-0.0893 -0.149146,-0.10957 -0.188989,-0.18944 -0.02484,-0.0498 0,-0.65869 0,-0.75775 0,-0.0631 -0.04454,-0.14478 0,-0.18943 0.04454,-0.0447 0.125994,0 0.188989,0 0.125992,0 0.32163,-0.11296 0.377976,0 0.063,0.12629 -0.08938,0.27903 -0.188987,0.37887 -0.04454,0.0446 0,-0.25258 0,-0.18944 0,0.045 0.02117,0.71529 0,0.75775 -0.03984,0.0799 -0.109305,0.14949 -0.188989,0.18944 -0.465468,0.23328 0.170606,-0.54989 -0.566965,0.18942 -0.04454,0.0446 0.05976,0.16947 0,0.18944 -0.17929,0.0599 -0.380548,-0.0312 -0.566963,0 -0.432763,0.0723 -1.143465,0.5683 -1.511905,0.5683 -0.140865,0 -0.23903,-0.21264 -0.377976,-0.18942 -0.442828,0.074 -0.836089,0.5683 -1.322917,0.5683 -0.321217,0 -0.626203,-0.22937 -0.944941,-0.18944 -0.225382,0.0283 -0.346609,0.32366 -0.566965,0.37888 -0.305575,0.0766 -0.631523,-0.0314 -0.944941,0 -0.319622,0.0321 -0.626202,0.14949 -0.944938,0.18943 -0.187529,0.0235 -0.379436,-0.0234 -0.566965,0 -0.318738,0.0399 -0.626951,0.1439 -0.944941,0.18943 -0.124724,0.0178 -0.251984,0 -0.377976,0 -0.377975,0 -0.755951,0 -1.13393,0 -0.881943,0 -1.763887,0 -2.645833,0 -0.377976,0 -0.755952,0 -1.133927,0 -0.125992,0 -0.251984,0 -0.377976,0 -0.125992,0 -0.265285,0.0565 -0.377976,0 -0.05635,-0.0283 -0.05635,-0.16119 0,-0.18943 0.169034,-0.0847 0.377976,0 0.566962,0 0.131451,0 0.876597,-0.0343 0.944941,0 0.07968,0.0399 0.109305,0.1495 0.188989,0.18943 0.05635,0.0283 0.132644,-0.0283 0.188987,0 0.07968,0.04 0.125992,0.1263 0.188989,0.18944 0.063,0.0631 0.149146,0.10957 0.18899,0.18944 0.02817,0.0565 -0.05635,0.1612 0,0.18943 0.112688,0.0565 0.288885,-0.0893 0.377975,0 0.063,0.0632 -0.149145,0.10956 -0.188989,0.18944 -0.02484,0.0498 0,0.65868 0,0.75774 0,0.0632 0.05635,0.16119 0,0.18944 -0.232317,0.11643 -0.533228,0.0555 -0.755952,0.18943 -0.12079,0.0727 -0.0763,0.29415 -0.188989,0.37887 -0.159369,0.11981 -0.396142,0.0867 -0.566962,0.18944 -0.152789,0.0919 -0.208942,0.32239 -0.377979,0.37887 -0.08451,0.0283 -0.104468,-0.21767 -0.188986,-0.18944 -0.169037,0.0564 -0.22519,0.28698 -0.377976,0.37887 -0.0062,0.004 -1.109438,0.36905 -1.13393,0.37887 -0.130789,0.0524 -0.241319,0.1552 -0.377976,0.18944 -0.122229,0.0307 -0.255746,-0.0307 -0.377976,0 -0.877387,0.43973 0.108781,0.016 -0.755951,0.18944 -0.195342,0.0392 -0.367755,0.18943 -0.566965,0.18943 -0.063,0 0.05976,-0.16946 0,-0.18943 -0.17929,-0.0599 -0.377976,0 -0.566965,0 -0.440971,0 -0.881944,0 -1.322917,0 -0.063,0 -0.125992,0 -0.188987,0 -0.063,0 -0.132643,0.0283 -0.188989,0 -0.07968,-0.04 -0.109302,-0.1495 -0.188986,-0.18944 -0.05635,-0.0283 -0.132644,0.0283 -0.18899,0 -0.07968,-0.0399 -0.109304,-0.1495 -0.188989,-0.18944 -0.05634,-0.0283 -0.188986,0.0632 -0.188986,0 0,-0.0893 0.188986,-0.10013 0.188986,-0.18943 0,-0.12629 -0.32163,0.11295 -0.377976,0 -0.05635,-0.11296 0,-0.25258 0,-0.37887 0,-0.0632 0,0.25258 0,0.18943 0,-0.12629 0,-0.25258 0,-0.37887 0,-0.0632 0,0.25258 0,0.18944 0,-0.12629 0,-0.25259 0,-0.37887 0,-0.0632 0.063,0.18943 0,0.18943 -0.06299,0 -0.06299,-0.18943 0,-0.18943 0.063,0 0,0.12628 0,0.18943 0,0.12629 0,0.25258 0,0.37887 0,0.31572 0,0.63146 0,0.94718 0,0.0631 0.01992,0.12953 0,0.18943 -0.137027,0.41207 -0.459766,0.6503 -0.755951,0.94718 -0.251984,0.25259 -0.477682,0.5346 -0.755952,0.75775 -0.109995,0.0882 -0.265287,0.10472 -0.377976,0.18944 -0.624514,0.46949 -0.102449,0.30628 -0.755954,0.5683 -0.184962,0.0742 -0.382,0.11527 -0.566962,0.18944 -1.068126,0.42826 0.312171,-0.0494 -0.755955,0.37886 -0.184962,0.0742 -0.382,0.11528 -0.566962,0.18944 -0.130789,0.0524 -0.237114,0.18944 -0.377978,0.18944 -0.199211,0 -0.371621,-0.2286 -0.566963,-0.18944 -0.17472,0.0351 -0.218609,0.29899 -0.377976,0.37887 -0.08032,0.0403 -0.786569,0 -0.94494,0 -0.063,0 -0.144444,0.0446 -0.18899,0 -0.04454,-0.0447 0.05635,-0.1612 0,-0.18943 -0.112691,-0.0564 -0.251984,0 -0.377975,0 -0.377976,0 -0.755952,0 -1.133928,0 -0.063,0 -0.136573,0.035 -0.188989,0 -0.148254,-0.099 -0.208939,-0.3224 -0.377976,-0.37888 -0.338836,-0.11321 -0.01397,0.74374 -0.566965,0.18944 -0.08909,-0.0893 0.08909,-0.28958 0,-0.37888 -0.063,-0.0632 -0.109302,0.22938 -0.188987,0.18944 -0.125992,-0.0632 -0.08938,-0.27903 -0.188989,-0.37886 -0.04454,-0.0447 0.04454,0.14478 0,0.18942 -0.04454,0.0447 -0.160816,0.0565 -0.188989,0 -0.535466,-1.07346 0.267734,-0.18942 0,-0.18942 -0.063,0 -0.04454,-0.1448 0,-0.18944 0.01889,-0.019 0.548066,-0.019 0.566965,0 0.04454,0.0446 -0.01992,0.12952 0,0.18944 0.04454,0.13394 0.110852,0.26138 0.188989,0.37886 0.04942,0.0743 0.149146,0.10957 0.188987,0.18944 0.02817,0.0565 -0.01992,0.12952 0,0.18944 0.04454,0.13394 0.144444,0.24491 0.188989,0.37886 0.03969,0.11936 0,0.992 0,1.13661 0,0.45016 0.103587,0.65756 -0.377976,0.94719 -0.170823,0.10273 -0.401211,0.0787 -0.566965,0.18943 -0.05242,0.035 0.04454,0.14479 0,0.18944 -0.0996,0.0998 -0.26077,0.11111 -0.377976,0.18943 -0.07413,0.0495 -0.10447,0.16119 -0.188989,0.18944 -0.119525,0.0399 -0.255746,-0.0307 -0.377976,0 -0.136657,0.0343 -0.24434,0.14478 -0.377975,0.18943 -0.05976,0.0199 -0.127874,-0.0153 -0.18899,0 -0.193262,0.0484 -0.367752,0.18944 -0.566962,0.18944 -0.08909,0 -0.109305,-0.1495 -0.188989,-0.18944 -0.04236,-0.0213 -0.711044,0 -0.755952,0 -0.04583,0 -0.560887,0.006 -0.566965,0 -0.391022,-0.39195 0.597535,0.0153 -0.188987,-0.37887 -0.05635,-0.0283 -0.160816,0.0564 -0.188989,0 -0.05635,-0.11295 0,-0.25258 0,-0.37887 0,-0.12629 0,-0.25258 0,-0.37887 0,-0.0631 -0.063,0.18944 0,0.18944 0.11053,0 0.257689,-0.43059 0.377976,-0.18944 0.05635,0.11296 0,0.25258 0,0.37887 0,0.31572 0,0.63145 0,0.94718 0,0.0632 0.04454,0.14479 0,0.18943 -0.09961,0.0998 -0.278371,0.0896 -0.377976,0.18944 -0.0996,0.0998 -0.0582,0.32643 -0.188989,0.37887 -0.23396,0.0938 -0.530569,-0.11296 -0.755952,0 -0.112691,0.0565 0.08909,0.28957 0,0.37887 -0.08909,0.0893 -0.260995,-0.0469 -0.377975,0 -0.210889,0.0846 -0.34661,0.32365 -0.566965,0.37887 -0.08643,0.0217 -0.109302,-0.22937 -0.188987,-0.18943 -0.239054,0.1198 -0.318812,0.4688 -0.566965,0.5683 -0.130789,0.0524 -0.237112,-0.18943 -0.377976,-0.18943 -0.140864,0 -0.241318,0.15519 -0.377976,0.18943 -0.122232,0.0307 -0.255746,-0.0306 -0.377975,0 -0.13666,0.0343 -0.244343,0.14479 -0.377979,0.18944 -0.246409,0.0823 -0.514789,0.0927 -0.755952,0.18943 -0.08272,0.0332 -0.0999,0.18944 -0.188986,0.18944 -0.199213,0 -0.371623,-0.15027 -0.566965,-0.18944 -0.123545,-0.0248 -0.251984,0 -0.377976,0 -0.125992,0 -0.255746,-0.0307 -0.377976,0 -0.13666,0.0343 -0.239849,0.16175 -0.377977,0.18944 -0.189397,0.038 -0.887838,0 -1.133929,0 -0.131448,0 -0.876596,-0.0343 -0.94494,0 -0.07969,0.0399 -0.0999,0.18944 -0.188988,0.18944 -0.01925,0 0.09939,-0.95699 -0.377976,0 -0.03984,0.0799 0.0999,0.18944 0.188988,0.18944 0.063,0 0,-0.25259 0,-0.18944 0,1.24185 0,-0.67355 0,0.5683 0,0.0646 -0.03409,0.65522 0,0.75774 0.04454,0.13396 0.144443,0.24492 0.188988,0.37888 0.01992,0.0599 -0.02817,0.13295 0,0.18943 0.03984,0.0799 0.188988,0.10014 0.188988,0.18943 0,0.1412 -0.251984,0.25259 -0.188988,0.37888 0.05635,0.11295 0.265285,-0.0564 0.377976,0 0.05635,0.0283 -0.01528,0.12817 0,0.18943 0.063,0.18944 0.125992,0.37888 0.188988,0.5683 0.063,0 0.144443,-0.0446 0.188988,0 0.04454,0.0447 0,0.1263 0,0.18944 0,0.18944 -0.05976,0.3886 0,0.56831 0.01992,0.06 0.160816,-0.0565 0.188988,0 0.05635,0.11296 0,0.25258 0,0.37887 0,0.12629 0,0.25259 0,0.37887 0,0.10869 0.01659,0.93055 0,0.94718 -0.063,0.0632 -0.0999,-0.18944 -0.188988,-0.18944 -0.140863,0 -0.27837,0.0896 -0.377976,0.18944 -0.04454,0.0446 0.251984,0 0.188988,0 -0.125992,0 -0.251984,0 -0.377976,0 -0.063,0 0.251984,0 0.188988,0 -0.125992,0 -0.251984,0 -0.377976,0 -0.063,0 0.233533,0.0446 0.188988,0 -0.09961,-0.0998 -0.278371,-0.0896 -0.377976,-0.18944 -0.04454,-0.0446 0.160815,0.0564 0.188988,0 0.05635,-0.11295 0,-0.25257 0,-0.37887 0,-0.0632 0,0.25258 0,0.18944 0,-0.12629 0,-0.25258 0,-0.37887 0,-0.0631 0.063,0.18943 0,0.18943 -0.063,0 -0.05635,-0.16119 0,-0.18943 0.169036,-0.0847 0.377976,0 0.566964,0 0.063,0 0.125992,0 0.188988,0 0.063,0 0.132643,-0.0283 0.188988,0 0.07968,0.0399 0.109304,0.14949 0.188988,0.18943 0.03468,0.0173 0.566965,-0.0139 0.566965,0 0,0.26837 -0.881945,-0.53673 0.188988,0 0.22589,0.11322 -0.364002,0.37887 0.188988,0.37887 0.08909,0 0.188988,-0.10013 0.188988,-0.18943 0,-0.0632 -0.188988,-0.0632 -0.188988,0 0,0.1412 0.08938,0.27902 0.188988,0.37887 0.04454,0.0446 -0.04455,-0.14479 0,-0.18944 0.04454,-0.0446 0.188988,-0.0631 0.188988,0 0,0.0632 -0.188988,-0.0631 -0.188988,0 0,0.1412 0.08938,0.27903 0.188988,0.37888 0.04454,0.0446 0,-0.25259 0,-0.18944 0,0.12629 0,0.25258 0,0.37887 0,0.0631 0,-0.25258 0,-0.18943 0,0.12629 0,0.25257 0,0.37886 0,0.0632 -0.063,-0.18943 0,-0.18943 0.304551,0 -0.09318,0.23482 -0.188988,0.37887 -0.07814,0.11749 -0.08938,0.27903 -0.188988,0.37887 -0.04454,0.0446 0,-0.25258 0,-0.18943 0,0.12629 0.100793,0.30309 0,0.37887 -0.207792,0.15621 -0.503968,0.12629 -0.755952,0.18943 z"
       id="path4943"
       inkscape:connector-curvature="0" />
    <text
       xml:space="preserve"
       style="font-style:normal;font-variant:normal;font-weight:normal;font-stretch:normal;font-size:10.58333302px;line-height:1.25;font-family:'Lucida Console';-inkscape-font-specification:'Lucida Console';letter-spacing:0px;word-spacing:0px;fill:#000000;fill-opacity:1;stroke:none;stroke-width:0.26458332"
       x="25.513393"
       y="222.91664"
       id="text4947"><tspan
         sodipodi:role="line"
         id="tspan4945"
         x="25.513393"
         y="222.91664"
         style="font-style:normal;font-variant:normal;font-weight:normal;font-stretch:normal;font-family:'Lucida Console';-inkscape-font-specification:'Lucida Console';stroke-width:0.26458332">&lt;HTMLGenie/&gt;</tspan></text>
  </g>
</svg>
