<?xml version="1.0" encoding="UTF-8" standalone="no"?>
<svg
   xmlns:dc="http://purl.org/dc/elements/1.1/"
   xmlns:cc="http://creativecommons.org/ns#"
   xmlns:rdf="http://www.w3.org/1999/02/22-rdf-syntax-ns#"
   xmlns:svg="http://www.w3.org/2000/svg"
   xmlns="http://www.w3.org/2000/svg"
   id="SVGRoot"
   version="1.1"
   viewBox="0 0 16 16"
   height="16px"
   width="16px">
  <defs
     id="defs200" />
  <metadata
     id="metadata203">
    <rdf:RDF>
      <cc:Work
         rdf:about="">
        <dc:format>image/svg+xml</dc:format>
        <dc:type
           rdf:resource="http://purl.org/dc/dcmitype/StillImage" />
        <dc:title></dc:title>
      </cc:Work>
    </rdf:RDF>
  </metadata>
  <g
     id="layer1">
    <path
       id="rect218"
       d="M 0.6875,3.0625 V 3.4640544 12.75 H 15.125 V 3.0625 Z M 1.6381173,3.8656088 H 14.174383 V 11.946891 H 1.6381173 Z"
       style="color:#000000;font-style:normal;font-variant:normal;font-weight:normal;font-stretch:normal;font-size:medium;line-height:normal;font-family:sans-serif;font-variant-ligatures:normal;font-variant-position:normal;font-variant-caps:normal;font-variant-numeric:normal;font-variant-alternates:normal;font-feature-settings:normal;text-indent:0;text-align:start;text-decoration:none;text-decoration-line:none;text-decoration-style:solid;text-decoration-color:#000000;letter-spacing:normal;word-spacing:normal;text-transform:none;writing-mode:lr-tb;direction:ltr;text-orientation:mixed;dominant-baseline:auto;baseline-shift:baseline;text-anchor:start;white-space:normal;shape-padding:0;clip-rule:nonzero;display:inline;overflow:visible;visibility:visible;opacity:1;isolation:auto;mix-blend-mode:normal;color-interpolation:sRGB;color-interpolation-filters:linearRGB;solid-color:#000000;solid-opacity:1;vector-effect:none;fill-opacity:1;fill-rule:nonzero;stroke:none;stroke-width:0.87375575;stroke-linecap:butt;stroke-linejoin:miter;stroke-miterlimit:4;stroke-dasharray:none;stroke-dashoffset:0;stroke-opacity:1;color-rendering:auto;image-rendering:auto;shape-rendering:auto;text-rendering:auto;enable-background:accumulate" />
    <ellipse
       ry="1.875"
       rx="2"
       cy="6.1875"
       cx="4.125"
       id="path222"
       style="fill:#000000" />
    <path
       id="rect249"
       d="m 9.1875,5 0.6875,0.5625 -1.4375,6 H 7.5 Z"
       style="fill:#000000" />
    <path
       style="fill:#000000"
       d="m 10.5625,5 -0.6875,0.5625 1.4375,6 H 12.25 Z"
       id="path252" />
    <path
       id="rect254"
       d="m 9.1875,5 0.65625,0 0.703125,0 V 5.609375 H 9.1875 Z"
       style="fill:#000000" />
    <path
       id="rect257"
       d="M 9.859375,3.953125 10.5625,5 h -1.375 z"
       style="fill:#000000;stroke-width:0.97274691" />
    <path
       id="path279"
       d="M 0.69485017,7.9015491 V 3.0734241 H 7.8979752 15.1011 v 4.828125 4.8281249 H 7.8979752 0.69485017 Z m 13.49999983,0 v -4.046875 h -6.2812498 -6.28125 v 4.046875 4.0468749 h 6.28125 6.2812498 z"
       style="fill:#ffffff;stroke-width:0.03125" />
    <path
       id="path281"
       d="M 3.6078354,7.9811341 C 2.6166275,7.7125438 1.9831351,6.7717571 2.1759527,5.8546741 2.4307548,4.6427799 3.818598,3.9843497 4.9893201,4.5199369 5.5116955,4.7589155 5.9171414,5.22833 6.0515942,5.7498099 6.2873145,6.6640595 5.7432958,7.6033256 4.7834315,7.9393338 4.463565,8.0513056 3.9360206,8.0700631 3.6078354,7.9811341 Z"
       style="fill:#ffffff;stroke-width:0.03125" />
    <path
       id="path283"
       d="m 7.5386002,11.506263 c 0,-0.0297 1.3878893,-5.4576972 1.5990261,-6.2537509 l 0.064394,-0.2427869 0.6760335,0.00841 0.6760332,0.00841 0.815238,3.171875 c 0.44838,1.7445312 0.824851,3.2105468 0.836601,3.2578128 l 0.02136,0.08594 h -0.449864 -0.449863 l -0.07958,-0.320312 C 11.204211,11.04569 10.884267,9.7132678 10.536995,8.2609241 10.189724,6.8085803 9.899598,5.6136751 9.892272,5.6055791 c -0.00733,-0.0081 -0.023125,0.00114 -0.035108,0.020534 -0.011984,0.01939 -0.338172,1.3583792 -0.7248633,2.975532 l -0.703075,2.9402779 -0.4453125,1.25e-4 c -0.3146472,8.9e-5 -0.4453125,-0.01041 -0.4453125,-0.03578 z"
       style="fill:#ffffff;stroke-width:0.03125" />
    <path
       id="path285"
       d="m 7.7339127,11.519135 c -0.094007,-0.0066 -0.1640625,-0.02651 -0.1640625,-0.04667 0,-0.08443 1.6240787,-6.4080746 1.6518415,-6.4317425 0.011018,-0.00939 0.3138223,-0.00939 0.6728977,0 l 0.6528646,0.017079 0.82321,3.203125 c 0.452765,1.7617185 0.823429,3.2210995 0.823698,3.2430685 3.78e-4,0.03093 -0.09637,0.03798 -0.428562,0.03125 L 11.336749,11.526549 10.96929,9.9952991 C 10.272123,7.0901147 9.9145666,5.6264738 9.8979637,5.609871 9.8888037,5.600711 9.8687697,5.606341 9.8534457,5.622382 9.8381207,5.638424 9.5141748,6.9523299 9.1335654,8.5421737 8.752956,10.132018 8.4343124,11.457408 8.4254685,11.487487 c -0.013808,0.04696 -0.052206,0.05387 -0.2717864,0.04891 -0.1406386,-0.0032 -0.3295348,-0.01094 -0.4197691,-0.01726 z"
       style="fill:#ffffff;stroke-width:0.03125" />
    <path
       id="path287"
       d="M 9.2479849,4.9377296 C 9.2617295,4.9146602 9.4051692,4.6893831 9.5667397,4.4371138 L 9.8605042,3.9784424 10.183927,4.4629922 c 0.177883,0.2665023 0.323423,0.4917795 0.323423,0.5006158 0,0.00884 -0.28898,0.016066 -0.6421776,0.016066 -0.5288536,0 -0.6377678,-0.0074 -0.6171875,-0.041944 z"
       style="fill:#ffffff;stroke-width:0.03125" />
  </g>
</svg>
