<?xml version="1.0" encoding="UTF-8" standalone="no"?>
<svg
   xmlns:dc="http://purl.org/dc/elements/1.1/"
   xmlns:cc="http://creativecommons.org/ns#"
   xmlns:rdf="http://www.w3.org/1999/02/22-rdf-syntax-ns#"
   xmlns:svg="http://www.w3.org/2000/svg"
   xmlns="http://www.w3.org/2000/svg"
   id="SVGRoot"
   version="1.1"
   viewBox="0 0 16 16"
   height="16px"
   width="16px">
  <defs
     id="defs10" />
  <metadata
     id="metadata13">
    <rdf:RDF>
      <cc:Work
         rdf:about="">
        <dc:format>image/svg+xml</dc:format>
        <dc:type
           rdf:resource="http://purl.org/dc/dcmitype/StillImage" />
        <dc:title></dc:title>
      </cc:Work>
    </rdf:RDF>
  </metadata>
  <g
     id="layer1">
    <ellipse
       ry="3.21875"
       rx="3.25"
       cy="4.40625"
       cx="3.8125"
       id="path26"
       style="fill:#000000;stroke:#000000" />
    <rect
       y="1.375"
       x="9.375"
       height="6.1875"
       width="5.6875"
       id="rect28"
       style="fill:#000000;stroke:#000000" />
    <path
       id="rect30"
       d="m 1.1960678,15.230322 v 0 l 5.8188485,-0.01359 -2.988061,-5.44108 z"
       style="fill:#000000;stroke:#000000;stroke-width:1.02430403" />
    <path
       transform="matrix(0.8455872,0,0,0.84484806,1.821069,2.3536586)"
       d="M 14.1875,15 11.836425,13.799866 9.5149227,15.056251 9.929796,12.449384 8.0175191,10.629748 10.625,10.21875 l 1.13965,-2.3809817 1.196639,2.3528567 2.616619,0.348107 -1.867918,1.865144 z"
       id="path33"
       style="fill:#000000;stroke:#000000" />
    <path
       id="path81"
       d="M 3.0125,8.002495 C 1.7454062,7.7293731 0.63993281,6.7063566 0.24751454,5.44375 0.07289765,4.8819198 0.06260144,3.9883932 0.22450594,3.4470175 0.54938551,2.3606861 1.2565718,1.5414059 2.2743847,1.0722189 2.8806376,0.79275102 3.3914022,0.69860336 4.0636566,0.74240799 5.0053998,0.80377274 5.7667839,1.1552578 6.4523187,1.8451089 7.8884644,3.2902974 7.8741887,5.5516928 6.4197281,7.0076919 5.5219865,7.9063831 4.2667964,8.2728594 3.0125,8.002495 Z"
       style="fill:#ffffff;stroke:#ffffff;stroke-width:0.0625" />
    <path
       id="path83"
       d="M 8.8875,4.475 V 0.9125 H 12.2 15.5125 V 4.475 8.0375 H 12.2 8.8875 Z"
       style="fill:#ffffff;stroke:#ffffff;stroke-width:0.0625" />
    <path
       id="path85"
       d="m 9.3864014,15.702914 c -6.062e-4,-0.03941 0.089962,-0.660272 0.2012574,-1.379681 l 0.202356,-1.308017 -1.0175855,-0.975729 -1.0175855,-0.97573 1.389715,-0.213427 1.3897152,-0.213428 0.595102,-1.2372011 c 0.327307,-0.6804605 0.610689,-1.23661 0.629738,-1.2358878 0.01905,7.222e-4 0.315834,0.5491597 0.659521,1.21875 0.343687,0.6695899 0.639,1.2182679 0.65625,1.2192839 0.187926,0.01107 2.704552,0.369257 2.722834,0.387539 0.01353,0.01353 -0.421257,0.467333 -0.9662,1.008445 l -0.990806,0.983838 0.241474,1.293541 c 0.132811,0.711447 0.241775,1.330766 0.242144,1.376265 3.75e-4,0.04963 -0.49498,-0.173679 -1.238256,-0.558183 l -1.238924,-0.640908 -1.229826,0.661097 c -0.6764036,0.363603 -1.2303194,0.628848 -1.2309236,0.589433 z"
       style="fill:#ffffff;stroke:#ffffff;stroke-width:0.0625" />
    <path
       id="path87"
       d="M 0.56241554,15.396875 C 0.66366469,15.216406 1.4705526,13.669176 2.3554997,11.958584 3.2404468,10.247993 3.9823269,8.8375009 4.0041222,8.8241566 4.0364581,8.8043586 6.0216266,12.371165 7.5019494,15.108798 l 0.3332,0.616202 H 4.1067377 0.37832617 Z"
       style="fill:#ffffff;stroke:#ffffff;stroke-width:0.0625" />
  </g>
</svg>
