<?xml version="1.0" encoding="UTF-8" standalone="no"?>
<svg
   xmlns:dc="http://purl.org/dc/elements/1.1/"
   xmlns:cc="http://creativecommons.org/ns#"
   xmlns:rdf="http://www.w3.org/1999/02/22-rdf-syntax-ns#"
   xmlns:svg="http://www.w3.org/2000/svg"
   xmlns="http://www.w3.org/2000/svg"
   id="SVGRoot"
   version="1.1"
   viewBox="0 0 16 16"
   height="16px"
   width="16px">
  <defs
     id="defs18" />
  <metadata
     id="metadata21">
    <rdf:RDF>
      <cc:Work
         rdf:about="">
        <dc:format>image/svg+xml</dc:format>
        <dc:type
           rdf:resource="http://purl.org/dc/dcmitype/StillImage" />
        <dc:title></dc:title>
      </cc:Work>
    </rdf:RDF>
  </metadata>
  <g
     id="layer1">
    <rect
       y="4.5625"
       x="8.75"
       height="8.75"
       width="3.0625"
       id="rect34" />
    <path
       id="rect36"
       d="M 6.125,2.6875 H 14.5 v 3.125 L 11.9375,4.75 h -3.25 L 6.0625,6 Z" />
    <path
       style="stroke-width:0.64598113"
       id="rect41"
       d="M 2.5842719,2.4373671 4.2313689,2.6365206 5.9592718,2.4112864 5.9116116,3.1062451 4.2424174,2.9638636 2.5842719,3.115466 Z" />
    <path
       d="m 2.5842719,12.062367 1.647097,0.199154 1.7279029,-0.225235 -0.04766,0.694959 -1.6691942,-0.142381 -1.6581455,0.151602 z"
       id="path106"
       style="stroke-width:0.64598113" />
    <rect
       y="2.9528151"
       x="3.8557184"
       height="9.2861366"
       width="0.6325826"
       id="rect108" />
    <path
       id="path129"
       d="m 8.7657489,9.0220106 c 0,-3.7483435 -0.00573,-4.28125 -0.045996,-4.28125 -0.025298,0 -0.6226342,0.2742188 -1.3274148,0.609375 -0.7047805,0.3351563 -1.2903754,0.609375 -1.301322,0.609375 -0.018657,0 -0.00624,-0.8284434 0.037835,-2.5234375 l 0.018891,-0.7265625 h 4.1683789 4.168378 v 1.53125 c 0,0.8421875 -0.0096,1.53125 -0.02143,1.53125 -0.01178,0 -0.580387,-0.2320312 -1.26356,-0.515625 -0.683173,-0.2835937 -1.278218,-0.515625 -1.322322,-0.515625 h -0.08019 v 4.28125 4.2812504 H 10.281374 8.7657489 Z"
       style="fill:#ffffff;stroke-width:0.03125" />
    <path
       id="path131"
       d="m 2.6094989,12.397011 c 0,-0.277421 0.00614,-0.312313 0.054687,-0.310833 0.030078,9.16e-4 0.3078125,0.03322 0.6171875,0.07177 l 0.5625,0.07011 0.00792,-4.6081283 c 0.00435,-2.5344708 0.00225,-4.6137907 -0.00467,-4.6207108 -0.00692,-0.00692 -0.2442518,0.00944 -0.5274037,0.036355 -0.283152,0.026915 -0.5587867,0.048937 -0.6125215,0.048937 h -0.0977 v -0.3125 c 0,-0.171875 0.010547,-0.3126155 0.023437,-0.3127568 0.012891,-1.412e-4 0.3820313,0.043145 0.8203125,0.096193 l 0.796875,0.096449 0.8414848,-0.1114786 c 0.4628167,-0.061313 0.844259,-0.1081154 0.8476493,-0.104005 0.012798,0.015515 -0.042231,0.620987 -0.057859,0.6366151 C 5.8669948,3.0874306 4.854755,3.0122586 4.5860603,2.9768316 L 4.4844989,2.96344 v 4.6230353 4.6230357 l -0.2578125,0.0032 c -0.2313404,0.0029 -0.2469673,0.0067 -0.152191,0.03694 0.084684,0.02705 0.2794484,0.01108 0.9825088,-0.08058 0.4822881,-0.06288 0.8794819,-0.111138 0.8826529,-0.107247 0.012072,0.01481 -0.042648,0.620606 -0.057389,0.635347 -0.00852,0.0085 -0.3810896,-0.01564 -0.8279314,-0.05369 l -0.8124396,-0.06918 -0.7302615,0.06798 c -0.4016439,0.03739 -0.7689334,0.06781 -0.8161991,0.06761 l -0.085937,-3.71e-4 z"
       style="fill:#ffffff;stroke-width:0.03125" />
  </g>
</svg>
